<svg xmlns="http://www.w3.org/2000/svg" xmlns:xlink="http://www.w3.org/1999/xlink" viewBox="0 0 1920 434.2" preserveAspectRatio="none"><g><path fill="#2f3041" d="M637.8,197.2c6.4,0.5,12.9,1,19.4,1.4L637.8,197.2z"/><path fill="#2f3041" d="M1502,197.1l-4.4-0.1c2.8,0.1,5.5,0.2,8.2,0.3L1502,197.1z"/><path fill="#2f3041" d="M1374.7,194.9l-16.7-0.2l-15.2,0.2C1352.6,194.9,1362.8,194.8,1374.7,194.9z"/><path fill="#2f3041" d="M1438.8,195.5l-9.7-0.1c6.9,0.1,13.8,0.2,20.5,0.4L1438.8,195.5z"/><path fill="#2f3041" d="M1144.6,199.9l0.1,0c51.4-1.3,87.8-2.3,114.5-3.1c24.2-0.7,41.8-1.2,57.7-1.5l-27.5,0.4l-71.8,2l-34.7,0.9l-30.9,0.8l-41,1l-26.4,0.6l-28.8,0.7l-30.9,0.7l-50.6,1.1l-62.7,1.2l-59.8,0.6l-60.5-0.5l-48.9-1.6l-36.3-1.7l-44.1-2.7c39.2,2.7,79.9,4.7,121.2,6C856,207.1,952.5,204.7,1144.6,199.9z"/><path fill="#2f3041" d="M1699.7,210.6c-11.7-1.1-27.6-1.9-56.5-3.3c-72.9-3.7-155.5-7.9-262.5-8.4c-45.2-0.2-65.9,0.4-121.3,2c-26.6,0.8-63.1,1.8-114.5,3.1l-0.1,0c-192.2,4.8-288.6,7.2-361.6,5c-110.7-3.3-217.4-12.3-300.6-25.2c-136.5-21.2-210.4-47-234.6-55.4C192.4,109,141,86.4,95,61.1C62.4,43.2,30.4,23.1,0,1.4V15v419.2h1920V263.2C1849.5,235.3,1775.3,217.6,1699.7,210.6z"/><path fill="#2ED573" d="M247.8,128.4c24.3,8.5,98.1,34.2,234.6,55.4c83.2,12.9,189.9,21.9,300.6,25.2c73,2.2,169.5-0.2,361.6-5l0.1,0c51.4-1.3,87.8-2.3,114.5-3.1c55.4-1.6,76.1-2.2,121.3-2c107,0.5,189.6,4.7,262.5,8.4c28.9,1.5,44.8,2.3,56.5,3.3c75.7,6.9,149.8,24.6,220.3,52.6v-3l-4.4-1.6l-18.4-7l-29-10l-12.5-3.9l-16.7-4.9l-15.5-4.2l-21-5.1l-13-2.9l-21.4-4.2l-12.4-2.2l-42.4-6l-51-4l-95.7-4.7l-60.5-2.3c-2.7-0.1-5.5-0.2-8.2-0.3l-48-1.2c-6.7-0.1-13.6-0.3-20.5-0.4l-54.5-0.5c-11.9,0-22.1,0-31.9,0.1l-26,0.4c-15.9,0.3-33.5,0.8-57.7,1.5c-26.6,0.8-63.1,1.8-114.5,3.1l-0.1,0c-192.1,4.8-288.5,7.2-361.4,5c-41.3-1.2-82.1-3.3-121.2-6l-1.2-0.1l-3.5-0.3c-6.5-0.5-13-0.9-19.4-1.4l-12.4-0.9l-33.6-2.9l-47.3-5l-32.1-4l-30.2-4.3l-36.9-6l-24.8-4.5l-23.3-4.5l-28.1-5.9l-27.8-6.5l-23.6-6l-29.2-8.2l-12.1-3.7l-14.5-4.6l-16-5.4L209,111.3l-14.5-5.7L172,96.2l-17.1-7.5L71.9,46L0,0v1.4c30.4,21.7,62.4,41.8,95,59.7C141,86.4,192.4,109,247.8,128.4z"/></g></svg>